<svg xmlns="http://www.w3.org/2000/svg" x="0px" y="0px" width="100" height="100" viewBox="0,0,256,256">
<g fill="#1976f2" fill-rule="nonzero" stroke="none" stroke-width="1" stroke-linecap="butt" stroke-linejoin="miter" stroke-miterlimit="10" stroke-dasharray="" stroke-dashoffset="0" font-family="none" font-weight="none" font-size="none" text-anchor="none" style="mix-blend-mode: normal"><g transform="scale(4,4)"><path d="M32,10c12.15,0 22,9.85 22,22c0,12.15 -9.85,22 -22,22c-12.15,0 -22,-9.85 -22,-22c0,-12.15 9.85,-22 22,-22zM40,34c1.104,0 2,-0.895 2,-2c0,-1.105 -0.896,-2 -2,-2c-0.248,0 -2.913,0 -6,0c0,-3.087 0,-5.752 0,-6c0,-1.104 -0.895,-2 -2,-2c-1.104,0 -2,0.896 -2,2c0,0.248 0,2.913 0,6c-3.087,0 -5.752,0 -6,0c-1.104,0 -2,0.895 -2,2c0,1.105 0.896,2 2,2c0.248,0 2.913,0 6,0c0,3.087 0,5.752 0,6c0,1.104 0.896,2 2,2c1.105,0 2,-0.896 2,-2c0,-0.248 0,-2.913 0,-6c3.087,0 5.752,0 6,0z"></path></g></g>
</svg>