<svg xmlns="http://www.w3.org/2000/svg" height="800" width="1200" viewBox="-149.1 -248.49675 1292.2 1490.9805"><path d="M497 0C217 0 0 205.1 0 482.1 0 627 59.4 752.2 156.1 838.7c8.1 7.3 13 17.4 13.4 28.3l2.7 88.4c.9 28.2 30 46.5 55.8 35.2l98.6-43.5c8.4-3.7 17.7-4.4 26.5-2 45.3 12.5 93.6 19.1 143.9 19.1 280 0 497-205.1 497-482.1S777 0 497 0zm298.4 370.9l-146 231.6c-23.2 36.8-73 46-107.8 19.9l-116.1-87.1c-10.7-8-25.3-7.9-35.9.1l-156.8 119c-20.9 15.9-48.3-9.2-34.2-31.4l146-231.6c23.2-36.8 73-46 107.8-19.9l116.1 87.1c10.7 8 25.3 7.9 35.9-.1l156.8-119c20.9-15.9 48.3 9.2 34.2 31.4z" fill-rule="evenodd" clip-rule="evenodd"/></svg>