<svg version="1.1" xmlns="http://www.w3.org/2000/svg" xmlns:xlink="http://www.w3.org/1999/xlink" x="0px" y="0px" viewBox="0 0 256 256" enable-background="new 0 0 256 256" xml:space="preserve">
<metadata> Svg Vector Icons : http://www.onlinewebfonts.com/icon </metadata>
<g><g><g><g><path fill="#000000" d="M204.2,144.8c0-2.2-0.9-3.8-2.6-4.7l-25.7-12.3c3-1.9,5.4-4.6,7.2-8c1.8-3.5,2.7-7.4,2.7-11.8c0-6.1-1.9-11.4-5.5-15.8c-3.7-4.4-8.2-6.6-13.6-6.6c-1.9,0-3.7,0.3-5.3,0.9c-1.7,0.6-3.2,1.4-4.6,2.4c1.7,4.7,2.6,9.5,2.6,14.4c0,7.7-2,14.7-6.1,21c0.8,0.8,1.5,1.5,2.2,2.1c0.7,0.6,1.4,1.2,2.2,1.7l16.8,7.8c2.4,1.3,4.2,3,5.7,5.3c1.4,2.3,2.1,4.8,2.1,7.7v21.7H200c1.3,0,2.3-0.5,3.1-1.5c0.8-1,1.2-2.2,1.2-3.7V144.8L204.2,144.8z M174.3,148.8c0-2.8-1.1-4.7-3.3-5.7l-22.4-10.9l-9.4-4.5c2-1.3,3.9-2.9,5.5-4.8c1.7-2,3-4.2,4.1-6.7c0.8-1.9,1.4-3.9,2-6.1c0.6-2.2,0.8-4.5,0.8-6.8c0-1.3-0.1-2.5-0.2-3.7c-0.2-1.2-0.4-2.4-0.7-3.7c-1.4-6-4.2-10.9-8.4-14.6c-4.2-3.8-9-5.7-14.5-5.7c-5.5,0-10.3,1.9-14.4,5.5c-4.1,3.7-6.8,8.4-8.3,14c-0.8,2.8-1.2,5.5-1.2,8c0,4.7,1,9.3,3.1,13.7c2.4,4.7,5.6,8.4,9.7,11.1l-9,4.2l-23.1,10.6c-2.4,1.1-3.5,3.1-3.5,5.9v21.7v3.8c0,1.7,0.5,3.2,1.5,4.4c1,1.2,2.3,1.8,3.9,1.8h82.6c1.4,0,2.6-0.6,3.7-1.8c1-1.2,1.5-2.6,1.5-4.4v-3.8L174.3,148.8L174.3,148.8z M73.2,148.8c0-2.8,0.7-5.4,2.1-7.7c1.4-2.3,3.3-4,5.7-5.3l17.5-8c1.6-0.9,2.8-2,3.8-3.3c-2-3-3.6-6.3-4.7-9.9c-1.1-3.6-1.7-7.4-1.7-11.3c0-2.7,0.3-5.2,0.8-7.7c0.6-2.4,1.2-4.8,2-7c-2.8-2-6-3.1-9.4-3.1c-5.3,0-9.9,2.2-13.6,6.6c-3.7,4.4-5.5,9.7-5.5,15.8c0,4.4,0.9,8.4,2.8,11.9c1.9,3.5,4.4,6.3,7.6,8.1l-26.2,12c-1.7,0.8-2.6,2.4-2.6,4.7v20.5c0,1.4,0.4,2.6,1.2,3.7c0.8,1,1.8,1.5,3.1,1.5h17.2L73.2,148.8L73.2,148.8z M128,10c16.2,0,31.5,3.1,45.9,9.3c14.4,6.2,26.9,14.6,37.5,25.3c10.6,10.6,19,23.1,25.3,37.5c6.2,14.4,9.3,29.7,9.3,45.9c0,10.9-1.4,21.3-4.2,31.4c-2.8,10.1-6.8,19.5-11.9,28.2c-5.1,8.7-11.2,16.7-18.4,23.8c-7.2,7.2-15.1,13.3-23.8,18.4c-8.7,5.1-18.1,9.1-28.2,11.9c-10.1,2.8-20.5,4.3-31.4,4.3c-10.9,0-21.3-1.4-31.4-4.2c-10.1-2.8-19.5-6.8-28.2-11.9c-8.7-5.1-16.7-11.2-23.8-18.4c-7.2-7.2-13.3-15.1-18.4-23.8c-5.1-8.7-9.1-18.1-11.9-28.2C11.4,149.3,10,138.9,10,128c0-10.9,1.4-21.3,4.2-31.4c2.8-10.1,6.8-19.5,11.9-28.2c5.1-8.7,11.2-16.7,18.4-23.8c7.2-7.2,15.1-13.3,23.8-18.4c8.7-5.1,18.1-9.1,28.2-11.9C106.7,11.4,117.1,10,128,10z"/></g></g><g></g><g></g><g></g><g></g><g></g><g></g><g></g><g></g><g></g><g></g><g></g><g></g><g></g><g></g><g></g></g></g>
</svg>
