<?xml version="1.0" encoding="iso-8859-1"?>
<!-- Generator: Adobe Illustrator 18.1.1, SVG Export Plug-In . SVG Version: 6.00 Build 0)  -->
<svg version="1.1" id="Capa_1" xmlns="http://www.w3.org/2000/svg" xmlns:xlink="http://www.w3.org/1999/xlink" x="0px" y="0px"
	 viewBox="0 0 288.033 288.033" style="enable-background:new 0 0 288.033 288.033;" xml:space="preserve">
<g>
	<g>
		<path style="fill:#010002;" d="M142.936,85.529c-23.032,0-41.768-18.736-41.768-41.768s18.736-41.768,41.768-41.768
			c23.026,0,41.768,18.736,41.768,41.768S165.963,85.529,142.936,85.529z"/>
	</g>
	<g>
		<path style="fill:#010002;" d="M41.768,85.529C18.736,85.529,0,66.793,0,43.761S18.736,1.993,41.768,1.993
			s41.768,18.736,41.768,41.768S64.8,85.529,41.768,85.529z"/>
	</g>
	<g>
		<path style="fill:#010002;" d="M246.259,85.529c-23.026,0-41.768-18.736-41.768-41.768s18.742-41.768,41.768-41.768
			s41.768,18.736,41.768,41.768S269.291,85.529,246.259,85.529z"/>
	</g>
	<g>
		<path style="fill:#010002;" d="M142.942,185.946c-23.032,0-41.768-18.742-41.768-41.768c0-23.032,18.736-41.768,41.768-41.768
			c23.026,0,41.768,18.742,41.768,41.768C184.71,167.204,165.968,185.946,142.942,185.946z"/>
	</g>
	<g>
		<path style="fill:#010002;" d="M41.774,185.946c-23.032,0-41.768-18.742-41.768-41.768c0-23.032,18.736-41.768,41.768-41.768
			s41.768,18.742,41.768,41.768C83.542,167.204,64.806,185.946,41.774,185.946z"/>
	</g>
	<g>
		<path style="fill:#010002;" d="M246.265,185.946c-23.026,0-41.768-18.742-41.768-41.768c0-23.032,18.742-41.768,41.768-41.768
			s41.768,18.742,41.768,41.768C288.033,167.204,269.297,185.946,246.265,185.946z"/>
	</g>
	<g>
		<path style="fill:#010002;" d="M142.942,286.04c-23.032,0-41.768-18.742-41.768-41.768s18.736-41.768,41.768-41.768
			c23.026,0,41.768,18.742,41.768,41.768S165.968,286.04,142.942,286.04z"/>
	</g>
	<g>
		<path style="fill:#010002;" d="M41.774,286.04c-23.032,0-41.768-18.742-41.768-41.768s18.736-41.768,41.768-41.768
			s41.768,18.742,41.768,41.768S64.806,286.04,41.774,286.04z"/>
	</g>
	<g>
		<path style="fill:#010002;" d="M246.265,286.04c-23.026,0-41.768-18.742-41.768-41.768s18.742-41.768,41.768-41.768
			s41.768,18.742,41.768,41.768S269.297,286.04,246.265,286.04z"/>
	</g>
</g>
<g>
</g>
<g>
</g>
<g>
</g>
<g>
</g>
<g>
</g>
<g>
</g>
<g>
</g>
<g>
</g>
<g>
</g>
<g>
</g>
<g>
</g>
<g>
</g>
<g>
</g>
<g>
</g>
<g>
</g>
</svg>
