<?xml version="1.0" ?><svg style="enable-background:new 0 0 48 48;" version="1.1" viewBox="0 0 48 48" xml:space="preserve" xmlns="http://www.w3.org/2000/svg" xmlns:xlink="http://www.w3.org/1999/xlink"><g id="Padding__x26__Artboard"/><g id="Icons"><g><circle cx="24" cy="18.98322" r="7.26353" style="fill:#FFFFFF;"/><circle cx="23.46072" cy="19.5225" r="6.72425" style="fill:#B9D4F8;"/><circle cx="24" cy="18.98322" r="5.97664" style="fill:#659BDB;"/><path d="M36.45824,35.94585c0-3.88968-3.18246-7.07214-7.07214-7.07214H18.61388    c-3.88968,0-7.07214,3.18246-7.07214,7.07214v0.33446h24.9165L36.45824,35.94585z" style="fill:#FFFFFF;"/><path d="M34.02217,35.9545c0-3.789-2.87132-6.88909-6.3807-6.88909h-9.71903    c-3.50939,0-6.3807,3.10008-6.3807,6.88909v0.32581h22.48043V35.9545z" style="fill:#B9D4F8;"/><path d="M30.77217,35.99082c0-3.36665-3.80191-6.94257-6.80394-6.94257l-7.22127,0.08507    c-3.00204,0-5.20522,3.49085-5.20522,6.8575v0.28949h19.23043L30.77217,35.99082z" style="fill:#659BDB;"/><circle cx="24" cy="18.98322" r="7.26353" style="fill:none;stroke:#1B4A9A;stroke-width:0.7;stroke-linecap:round;stroke-linejoin:round;stroke-miterlimit:10;"/><path d="    M19.12193,17.06919c0.48483-2.4277,2.8459-4.00272,5.2736-3.51789" style="fill:none;stroke:#1B4A9A;stroke-width:0.7;stroke-linecap:round;stroke-linejoin:round;stroke-miterlimit:10;"/><path d="    M11.54175,35.94585c0-3.88968,3.18246-7.07214,7.07214-7.07214h10.77223c3.88968,0,7.07214,3.18246,7.07214,7.07214H11.54175z" style="fill:none;stroke:#1B4A9A;stroke-width:0.7;stroke-linecap:round;stroke-linejoin:round;stroke-miterlimit:10;"/><path d="    M18.98164,18.51976c0,0-0.10733,0.99282,0,1.44898" style="fill:none;stroke:#1B4A9A;stroke-width:0.7;stroke-linecap:round;stroke-linejoin:round;stroke-miterlimit:10;"/></g></g></svg>